<mxfile host="Electron" agent="Mozilla/5.0 (Windows NT 10.0; Win64; x64) AppleWebKit/537.36 (KHTML, like Gecko) draw.io/24.7.5 Chrome/126.0.6478.183 Electron/31.3.0 Safari/537.36" version="24.7.5">
  <diagram name="Page-1" id="4H-OiO5wgNnp5G3xVHLZ">
    <mxGraphModel dx="1800" dy="828" grid="0" gridSize="10" guides="1" tooltips="1" connect="1" arrows="1" fold="1" page="0" pageScale="1" pageWidth="827" pageHeight="1169" math="0" shadow="0">
      <root>
        <mxCell id="0" />
        <mxCell id="1" parent="0" />
        <mxCell id="Y943WYyyU99tUCONeAsC-100" value="" style="endArrow=none;html=1;rounded=0;strokeWidth=3;fillColor=#f5f5f5;strokeColor=#666666;gradientColor=#b3b3b3;" parent="1" edge="1">
          <mxGeometry width="50" height="50" relative="1" as="geometry">
            <mxPoint x="314" y="950" as="sourcePoint" />
            <mxPoint x="314" y="930" as="targetPoint" />
            <Array as="points">
              <mxPoint x="314" y="940" />
            </Array>
          </mxGeometry>
        </mxCell>
        <mxCell id="Y943WYyyU99tUCONeAsC-101" value="" style="endArrow=none;html=1;rounded=0;strokeWidth=3;fillColor=#f5f5f5;strokeColor=#666666;gradientColor=#b3b3b3;" parent="1" edge="1">
          <mxGeometry width="50" height="50" relative="1" as="geometry">
            <mxPoint x="324.25" y="950" as="sourcePoint" />
            <mxPoint x="324.25" y="930" as="targetPoint" />
          </mxGeometry>
        </mxCell>
        <mxCell id="Y943WYyyU99tUCONeAsC-102" value="" style="endArrow=none;html=1;rounded=0;strokeWidth=2;fillColor=#f5f5f5;strokeColor=#666666;gradientColor=#b3b3b3;" parent="1" edge="1">
          <mxGeometry width="50" height="50" relative="1" as="geometry">
            <mxPoint x="323.25" y="940" as="sourcePoint" />
            <mxPoint x="351.25" y="940" as="targetPoint" />
          </mxGeometry>
        </mxCell>
        <mxCell id="Y943WYyyU99tUCONeAsC-103" value="" style="endArrow=none;html=1;rounded=0;strokeWidth=2;fillColor=#f5f5f5;strokeColor=#666666;gradientColor=#b3b3b3;" parent="1" edge="1">
          <mxGeometry width="50" height="50" relative="1" as="geometry">
            <mxPoint x="285.25" y="940" as="sourcePoint" />
            <mxPoint x="312.25" y="940" as="targetPoint" />
          </mxGeometry>
        </mxCell>
        <mxCell id="Y943WYyyU99tUCONeAsC-104" value="" style="endArrow=none;html=1;rounded=0;strokeWidth=2;fillColor=#f5f5f5;strokeColor=#666666;gradientColor=#b3b3b3;" parent="1" edge="1">
          <mxGeometry width="50" height="50" relative="1" as="geometry">
            <mxPoint x="286.75" y="940" as="sourcePoint" />
            <mxPoint x="314" y="940" as="targetPoint" />
          </mxGeometry>
        </mxCell>
        <mxCell id="Y943WYyyU99tUCONeAsC-92" value="" style="endArrow=none;html=1;rounded=0;strokeWidth=3;fillColor=#f5f5f5;strokeColor=#666666;gradientColor=#b3b3b3;" parent="1" edge="1">
          <mxGeometry width="50" height="50" relative="1" as="geometry">
            <mxPoint x="441" y="950" as="sourcePoint" />
            <mxPoint x="441" y="930" as="targetPoint" />
          </mxGeometry>
        </mxCell>
        <mxCell id="Y943WYyyU99tUCONeAsC-93" value="" style="endArrow=none;html=1;rounded=0;strokeWidth=3;fillColor=#f5f5f5;strokeColor=#666666;gradientColor=#b3b3b3;" parent="1" edge="1">
          <mxGeometry width="50" height="50" relative="1" as="geometry">
            <mxPoint x="450" y="950" as="sourcePoint" />
            <mxPoint x="450" y="930" as="targetPoint" />
          </mxGeometry>
        </mxCell>
        <mxCell id="Y943WYyyU99tUCONeAsC-94" value="" style="endArrow=none;html=1;rounded=0;strokeWidth=2;fillColor=#f5f5f5;strokeColor=#666666;gradientColor=#b3b3b3;" parent="1" edge="1">
          <mxGeometry width="50" height="50" relative="1" as="geometry">
            <mxPoint x="449" y="940" as="sourcePoint" />
            <mxPoint x="477" y="940" as="targetPoint" />
          </mxGeometry>
        </mxCell>
        <mxCell id="Y943WYyyU99tUCONeAsC-95" value="" style="endArrow=none;html=1;rounded=0;strokeWidth=2;fillColor=#f5f5f5;strokeColor=#666666;gradientColor=#b3b3b3;" parent="1" edge="1">
          <mxGeometry width="50" height="50" relative="1" as="geometry">
            <mxPoint x="411" y="940" as="sourcePoint" />
            <mxPoint x="438" y="940" as="targetPoint" />
          </mxGeometry>
        </mxCell>
        <mxCell id="Y943WYyyU99tUCONeAsC-96" value="" style="endArrow=none;html=1;rounded=0;strokeWidth=2;fillColor=#f5f5f5;strokeColor=#666666;gradientColor=#b3b3b3;" parent="1" edge="1">
          <mxGeometry width="50" height="50" relative="1" as="geometry">
            <mxPoint x="412.5" y="940" as="sourcePoint" />
            <mxPoint x="442" y="940" as="targetPoint" />
          </mxGeometry>
        </mxCell>
        <mxCell id="Y943WYyyU99tUCONeAsC-87" value="" style="endArrow=none;html=1;rounded=0;strokeWidth=3;fillColor=#f5f5f5;strokeColor=#666666;gradientColor=#b3b3b3;" parent="1" edge="1">
          <mxGeometry width="50" height="50" relative="1" as="geometry">
            <mxPoint x="702" y="950" as="sourcePoint" />
            <mxPoint x="702" y="930" as="targetPoint" />
          </mxGeometry>
        </mxCell>
        <mxCell id="Y943WYyyU99tUCONeAsC-88" value="" style="endArrow=none;html=1;rounded=0;strokeWidth=3;fillColor=#f5f5f5;strokeColor=#666666;gradientColor=#b3b3b3;" parent="1" edge="1">
          <mxGeometry width="50" height="50" relative="1" as="geometry">
            <mxPoint x="711" y="950" as="sourcePoint" />
            <mxPoint x="711" y="930" as="targetPoint" />
          </mxGeometry>
        </mxCell>
        <mxCell id="Y943WYyyU99tUCONeAsC-89" value="" style="endArrow=none;html=1;rounded=0;strokeWidth=2;fillColor=#f5f5f5;strokeColor=#666666;gradientColor=#b3b3b3;" parent="1" edge="1">
          <mxGeometry width="50" height="50" relative="1" as="geometry">
            <mxPoint x="710" y="940" as="sourcePoint" />
            <mxPoint x="738" y="940" as="targetPoint" />
          </mxGeometry>
        </mxCell>
        <mxCell id="Y943WYyyU99tUCONeAsC-90" value="" style="endArrow=none;html=1;rounded=0;strokeWidth=2;fillColor=#f5f5f5;strokeColor=#666666;gradientColor=#b3b3b3;" parent="1" edge="1">
          <mxGeometry width="50" height="50" relative="1" as="geometry">
            <mxPoint x="672" y="940" as="sourcePoint" />
            <mxPoint x="699" y="940" as="targetPoint" />
          </mxGeometry>
        </mxCell>
        <mxCell id="Y943WYyyU99tUCONeAsC-91" value="" style="endArrow=none;html=1;rounded=0;strokeWidth=2;fillColor=#f5f5f5;strokeColor=#666666;gradientColor=#b3b3b3;" parent="1" edge="1">
          <mxGeometry width="50" height="50" relative="1" as="geometry">
            <mxPoint x="673.5" y="940" as="sourcePoint" />
            <mxPoint x="703" y="940" as="targetPoint" />
          </mxGeometry>
        </mxCell>
        <mxCell id="Y943WYyyU99tUCONeAsC-71" value="" style="endArrow=none;html=1;rounded=0;strokeWidth=3;fillColor=#f5f5f5;strokeColor=#666666;gradientColor=#b3b3b3;" parent="1" edge="1">
          <mxGeometry width="50" height="50" relative="1" as="geometry">
            <mxPoint x="828" y="950" as="sourcePoint" />
            <mxPoint x="828" y="930" as="targetPoint" />
          </mxGeometry>
        </mxCell>
        <mxCell id="Y943WYyyU99tUCONeAsC-72" value="" style="endArrow=none;html=1;rounded=0;strokeWidth=3;fillColor=#f5f5f5;strokeColor=#666666;gradientColor=#b3b3b3;" parent="1" edge="1">
          <mxGeometry width="50" height="50" relative="1" as="geometry">
            <mxPoint x="837" y="950" as="sourcePoint" />
            <mxPoint x="837" y="930" as="targetPoint" />
          </mxGeometry>
        </mxCell>
        <mxCell id="Y943WYyyU99tUCONeAsC-73" value="" style="endArrow=none;html=1;rounded=0;strokeWidth=2;fillColor=#f5f5f5;strokeColor=#666666;gradientColor=#b3b3b3;" parent="1" edge="1">
          <mxGeometry width="50" height="50" relative="1" as="geometry">
            <mxPoint x="836" y="940" as="sourcePoint" />
            <mxPoint x="864" y="940" as="targetPoint" />
          </mxGeometry>
        </mxCell>
        <mxCell id="Y943WYyyU99tUCONeAsC-74" value="" style="endArrow=none;html=1;rounded=0;strokeWidth=2;fillColor=#f5f5f5;strokeColor=#666666;gradientColor=#b3b3b3;" parent="1" edge="1">
          <mxGeometry width="50" height="50" relative="1" as="geometry">
            <mxPoint x="798" y="940" as="sourcePoint" />
            <mxPoint x="825" y="940" as="targetPoint" />
          </mxGeometry>
        </mxCell>
        <mxCell id="Y943WYyyU99tUCONeAsC-75" value="" style="endArrow=none;html=1;rounded=0;strokeWidth=2;fillColor=#f5f5f5;strokeColor=#666666;gradientColor=#b3b3b3;" parent="1" edge="1">
          <mxGeometry width="50" height="50" relative="1" as="geometry">
            <mxPoint x="799.5" y="940" as="sourcePoint" />
            <mxPoint x="829" y="940" as="targetPoint" />
          </mxGeometry>
        </mxCell>
        <mxCell id="Y943WYyyU99tUCONeAsC-60" value="" style="endArrow=none;html=1;rounded=0;strokeWidth=3;fillColor=#f5f5f5;strokeColor=#666666;gradientColor=#b3b3b3;" parent="1" edge="1">
          <mxGeometry width="50" height="50" relative="1" as="geometry">
            <mxPoint x="953" y="950" as="sourcePoint" />
            <mxPoint x="953" y="930" as="targetPoint" />
          </mxGeometry>
        </mxCell>
        <mxCell id="Y943WYyyU99tUCONeAsC-61" value="" style="endArrow=none;html=1;rounded=0;strokeWidth=3;fillColor=#f5f5f5;strokeColor=#666666;gradientColor=#b3b3b3;" parent="1" edge="1">
          <mxGeometry width="50" height="50" relative="1" as="geometry">
            <mxPoint x="962" y="950" as="sourcePoint" />
            <mxPoint x="962" y="930" as="targetPoint" />
          </mxGeometry>
        </mxCell>
        <mxCell id="Y943WYyyU99tUCONeAsC-62" value="" style="endArrow=none;html=1;rounded=0;strokeWidth=2;fillColor=#f5f5f5;strokeColor=#666666;gradientColor=#b3b3b3;" parent="1" edge="1">
          <mxGeometry width="50" height="50" relative="1" as="geometry">
            <mxPoint x="961" y="940" as="sourcePoint" />
            <mxPoint x="989" y="940" as="targetPoint" />
          </mxGeometry>
        </mxCell>
        <mxCell id="Y943WYyyU99tUCONeAsC-63" value="" style="endArrow=none;html=1;rounded=0;strokeWidth=2;fillColor=#f5f5f5;strokeColor=#666666;gradientColor=#b3b3b3;" parent="1" edge="1">
          <mxGeometry width="50" height="50" relative="1" as="geometry">
            <mxPoint x="923" y="940" as="sourcePoint" />
            <mxPoint x="950" y="940" as="targetPoint" />
          </mxGeometry>
        </mxCell>
        <mxCell id="Y943WYyyU99tUCONeAsC-64" value="" style="endArrow=none;html=1;rounded=0;strokeWidth=2;fillColor=#f5f5f5;strokeColor=#666666;gradientColor=#b3b3b3;" parent="1" edge="1">
          <mxGeometry width="50" height="50" relative="1" as="geometry">
            <mxPoint x="924.5" y="940" as="sourcePoint" />
            <mxPoint x="954" y="940" as="targetPoint" />
          </mxGeometry>
        </mxCell>
        <mxCell id="Y943WYyyU99tUCONeAsC-25" value="" style="endArrow=none;html=1;rounded=0;strokeWidth=3;fillColor=#f5f5f5;strokeColor=#666666;gradientColor=#b3b3b3;" parent="1" edge="1">
          <mxGeometry width="50" height="50" relative="1" as="geometry">
            <mxPoint x="1079" y="949" as="sourcePoint" />
            <mxPoint x="1079" y="929" as="targetPoint" />
          </mxGeometry>
        </mxCell>
        <mxCell id="Y943WYyyU99tUCONeAsC-26" value="" style="endArrow=none;html=1;rounded=0;strokeWidth=3;fillColor=#f5f5f5;strokeColor=#666666;gradientColor=#b3b3b3;" parent="1" edge="1">
          <mxGeometry width="50" height="50" relative="1" as="geometry">
            <mxPoint x="1088" y="949" as="sourcePoint" />
            <mxPoint x="1088" y="929" as="targetPoint" />
          </mxGeometry>
        </mxCell>
        <mxCell id="Y943WYyyU99tUCONeAsC-23" value="" style="endArrow=none;html=1;rounded=0;strokeWidth=2;fillColor=#f5f5f5;strokeColor=#666666;gradientColor=#b3b3b3;" parent="1" edge="1">
          <mxGeometry width="50" height="50" relative="1" as="geometry">
            <mxPoint x="1087" y="939" as="sourcePoint" />
            <mxPoint x="1115" y="939" as="targetPoint" />
          </mxGeometry>
        </mxCell>
        <mxCell id="Y943WYyyU99tUCONeAsC-45" value="" style="endArrow=none;html=1;rounded=0;strokeWidth=2;fillColor=#f5f5f5;strokeColor=#666666;gradientColor=#b3b3b3;" parent="1" edge="1">
          <mxGeometry width="50" height="50" relative="1" as="geometry">
            <mxPoint x="1049" y="939" as="sourcePoint" />
            <mxPoint x="1076" y="939" as="targetPoint" />
          </mxGeometry>
        </mxCell>
        <mxCell id="Y943WYyyU99tUCONeAsC-46" value="" style="endArrow=none;html=1;rounded=0;strokeWidth=2;fillColor=#f5f5f5;strokeColor=#666666;gradientColor=#b3b3b3;" parent="1" edge="1">
          <mxGeometry width="50" height="50" relative="1" as="geometry">
            <mxPoint x="1088" y="939" as="sourcePoint" />
            <mxPoint x="1116.5" y="939" as="targetPoint" />
          </mxGeometry>
        </mxCell>
        <mxCell id="Y943WYyyU99tUCONeAsC-47" value="" style="endArrow=none;html=1;rounded=0;strokeWidth=2;fillColor=#f5f5f5;strokeColor=#666666;gradientColor=#b3b3b3;" parent="1" edge="1">
          <mxGeometry width="50" height="50" relative="1" as="geometry">
            <mxPoint x="1050.5" y="939" as="sourcePoint" />
            <mxPoint x="1080" y="939" as="targetPoint" />
          </mxGeometry>
        </mxCell>
        <mxCell id="JkBDYto9jnC0jZFRPAEh-16" value="" style="endArrow=none;html=1;rounded=0;exitX=0.995;exitY=0.185;exitDx=0;exitDy=0;exitPerimeter=0;fillColor=#a20025;strokeColor=#6F0000;strokeWidth=6;entryX=0.321;entryY=0.258;entryDx=0;entryDy=0;entryPerimeter=0;" parent="1" target="JkBDYto9jnC0jZFRPAEh-1" edge="1">
          <mxGeometry width="50" height="50" relative="1" as="geometry">
            <mxPoint x="380.0000000000001" y="330.1299999999999" as="sourcePoint" />
            <mxPoint x="490" y="329.88" as="targetPoint" />
          </mxGeometry>
        </mxCell>
        <mxCell id="JkBDYto9jnC0jZFRPAEh-2" value="&lt;font size=&quot;1&quot; style=&quot;&quot;&gt;&lt;b style=&quot;font-size: 20px;&quot;&gt;PSU 5V&lt;/b&gt;&lt;/font&gt;" style="rounded=1;whiteSpace=wrap;html=1;strokeWidth=3;" parent="1" vertex="1">
          <mxGeometry x="120" y="300" width="70" height="150" as="geometry" />
        </mxCell>
        <mxCell id="JkBDYto9jnC0jZFRPAEh-3" value="" style="endArrow=none;html=1;rounded=0;exitX=0.995;exitY=0.185;exitDx=0;exitDy=0;exitPerimeter=0;fillColor=#a20025;strokeColor=#6F0000;strokeWidth=6;" parent="1" edge="1">
          <mxGeometry width="50" height="50" relative="1" as="geometry">
            <mxPoint x="190.00000000000009" y="330.2499999999999" as="sourcePoint" />
            <mxPoint x="300" y="330" as="targetPoint" />
          </mxGeometry>
        </mxCell>
        <mxCell id="JkBDYto9jnC0jZFRPAEh-4" value="V_OUT" style="text;html=1;align=center;verticalAlign=middle;whiteSpace=wrap;rounded=0;" parent="1" vertex="1">
          <mxGeometry x="190" y="300" width="60" height="40" as="geometry" />
        </mxCell>
        <mxCell id="JkBDYto9jnC0jZFRPAEh-5" value="V&lt;span style=&quot;background-color: initial;&quot;&gt;_IN&lt;/span&gt;" style="text;html=1;align=center;verticalAlign=middle;whiteSpace=wrap;rounded=0;" parent="1" vertex="1">
          <mxGeometry x="520" y="302" width="60" height="40" as="geometry" />
        </mxCell>
        <mxCell id="JkBDYto9jnC0jZFRPAEh-6" value="" style="endArrow=none;html=1;rounded=0;exitX=0.995;exitY=0.185;exitDx=0;exitDy=0;entryX=0.426;entryY=0.679;entryDx=0;entryDy=0;exitPerimeter=0;strokeWidth=6;entryPerimeter=0;" parent="1" target="JkBDYto9jnC0jZFRPAEh-1" edge="1">
          <mxGeometry width="50" height="50" relative="1" as="geometry">
            <mxPoint x="190" y="411" as="sourcePoint" />
            <mxPoint x="490" y="410" as="targetPoint" />
          </mxGeometry>
        </mxCell>
        <mxCell id="JkBDYto9jnC0jZFRPAEh-7" value="GND" style="text;html=1;align=center;verticalAlign=middle;whiteSpace=wrap;rounded=0;" parent="1" vertex="1">
          <mxGeometry x="190" y="380" width="60" height="40" as="geometry" />
        </mxCell>
        <mxCell id="JkBDYto9jnC0jZFRPAEh-11" value="GND" style="text;html=1;align=center;verticalAlign=middle;whiteSpace=wrap;rounded=0;" parent="1" vertex="1">
          <mxGeometry x="521" y="382" width="60" height="40" as="geometry" />
        </mxCell>
        <mxCell id="JkBDYto9jnC0jZFRPAEh-12" value="" style="ellipse;whiteSpace=wrap;html=1;aspect=fixed;" parent="1" vertex="1">
          <mxGeometry x="298" y="325" width="10" height="10" as="geometry" />
        </mxCell>
        <mxCell id="JkBDYto9jnC0jZFRPAEh-14" value="" style="endArrow=none;html=1;rounded=0;strokeWidth=4;" parent="1" source="JkBDYto9jnC0jZFRPAEh-12" edge="1">
          <mxGeometry width="50" height="50" relative="1" as="geometry">
            <mxPoint x="350" y="387" as="sourcePoint" />
            <mxPoint x="372" y="301" as="targetPoint" />
          </mxGeometry>
        </mxCell>
        <mxCell id="JkBDYto9jnC0jZFRPAEh-15" value="" style="ellipse;whiteSpace=wrap;html=1;aspect=fixed;" parent="1" vertex="1">
          <mxGeometry x="374" y="325" width="10" height="10" as="geometry" />
        </mxCell>
        <mxCell id="JkBDYto9jnC0jZFRPAEh-1" value="&lt;h2&gt;&lt;font style=&quot;font-size: 19px;&quot;&gt;uC - NUCLEO-L476RG&lt;/font&gt;&lt;/h2&gt;" style="rounded=1;whiteSpace=wrap;html=1;strokeWidth=3;" parent="1" vertex="1">
          <mxGeometry x="568" y="280" width="190" height="190" as="geometry" />
        </mxCell>
        <mxCell id="JkBDYto9jnC0jZFRPAEh-22" value="&lt;b&gt;&lt;font color=&quot;#663300&quot; style=&quot;font-size: 15px;&quot;&gt;PWM&lt;/font&gt;&lt;/b&gt;&lt;div&gt;&lt;b&gt;&lt;font color=&quot;#663300&quot; style=&quot;font-size: 15px;&quot;&gt;&lt;br&gt;&lt;/font&gt;&lt;/b&gt;&lt;/div&gt;" style="rounded=1;whiteSpace=wrap;html=1;" parent="1" vertex="1">
          <mxGeometry x="581" y="426" width="161" height="40" as="geometry" />
        </mxCell>
        <mxCell id="JkBDYto9jnC0jZFRPAEh-23" value="" style="endArrow=none;html=1;rounded=0;entryX=0.06;entryY=1.014;entryDx=0;entryDy=0;entryPerimeter=0;strokeWidth=5;fillColor=#f0a30a;strokeColor=#BD7000;exitX=0.5;exitY=0;exitDx=0;exitDy=0;" parent="1" source="JkBDYto9jnC0jZFRPAEh-59" edge="1">
          <mxGeometry width="50" height="50" relative="1" as="geometry">
            <mxPoint x="588.34" y="504" as="sourcePoint" />
            <mxPoint x="588.0000000000001" y="466.55999999999995" as="targetPoint" />
            <Array as="points">
              <mxPoint x="67" y="640" />
              <mxPoint x="590" y="640" />
            </Array>
          </mxGeometry>
        </mxCell>
        <mxCell id="JkBDYto9jnC0jZFRPAEh-25" value="" style="endArrow=none;html=1;rounded=0;entryX=0.06;entryY=1.014;entryDx=0;entryDy=0;entryPerimeter=0;strokeWidth=5;fillColor=#f0a30a;strokeColor=#BD7000;exitX=0.5;exitY=0;exitDx=0;exitDy=0;" parent="1" source="JkBDYto9jnC0jZFRPAEh-60" edge="1">
          <mxGeometry width="50" height="50" relative="1" as="geometry">
            <mxPoint x="608" y="504" as="sourcePoint" />
            <mxPoint x="608" y="466" as="targetPoint" />
            <Array as="points">
              <mxPoint x="193" y="650" />
              <mxPoint x="610" y="650" />
            </Array>
          </mxGeometry>
        </mxCell>
        <mxCell id="JkBDYto9jnC0jZFRPAEh-26" value="" style="endArrow=none;html=1;rounded=0;entryX=0.06;entryY=1.014;entryDx=0;entryDy=0;entryPerimeter=0;strokeWidth=5;fillColor=#f0a30a;strokeColor=#BD7000;exitX=0.5;exitY=0;exitDx=0;exitDy=0;" parent="1" source="JkBDYto9jnC0jZFRPAEh-61" edge="1">
          <mxGeometry width="50" height="50" relative="1" as="geometry">
            <mxPoint x="627" y="504" as="sourcePoint" />
            <mxPoint x="627" y="466" as="targetPoint" />
            <Array as="points">
              <mxPoint x="318" y="660" />
              <mxPoint x="627" y="660" />
            </Array>
          </mxGeometry>
        </mxCell>
        <mxCell id="JkBDYto9jnC0jZFRPAEh-27" value="" style="endArrow=none;html=1;rounded=0;entryX=0.06;entryY=1.014;entryDx=0;entryDy=0;entryPerimeter=0;strokeWidth=5;fillColor=#f0a30a;strokeColor=#BD7000;exitX=0.5;exitY=0;exitDx=0;exitDy=0;" parent="1" source="JkBDYto9jnC0jZFRPAEh-62" edge="1">
          <mxGeometry width="50" height="50" relative="1" as="geometry">
            <mxPoint x="646" y="504" as="sourcePoint" />
            <mxPoint x="646" y="466" as="targetPoint" />
            <Array as="points">
              <mxPoint x="444" y="670" />
              <mxPoint x="646" y="670" />
            </Array>
          </mxGeometry>
        </mxCell>
        <mxCell id="JkBDYto9jnC0jZFRPAEh-28" value="" style="endArrow=none;html=1;rounded=0;entryX=0.06;entryY=1.014;entryDx=0;entryDy=0;entryPerimeter=0;strokeWidth=5;fillColor=#e3c800;strokeColor=#B09500;exitX=0.5;exitY=0;exitDx=0;exitDy=0;" parent="1" source="JkBDYto9jnC0jZFRPAEh-63" edge="1">
          <mxGeometry width="50" height="50" relative="1" as="geometry">
            <mxPoint x="680" y="670" as="sourcePoint" />
            <mxPoint x="678" y="466" as="targetPoint" />
            <Array as="points">
              <mxPoint x="707" y="670" />
              <mxPoint x="680" y="670" />
            </Array>
          </mxGeometry>
        </mxCell>
        <mxCell id="JkBDYto9jnC0jZFRPAEh-29" value="" style="endArrow=none;html=1;rounded=0;entryX=0.06;entryY=1.014;entryDx=0;entryDy=0;entryPerimeter=0;strokeWidth=5;fillColor=#e3c800;strokeColor=#B09500;exitX=0.5;exitY=0;exitDx=0;exitDy=0;" parent="1" source="JkBDYto9jnC0jZFRPAEh-64" edge="1">
          <mxGeometry width="50" height="50" relative="1" as="geometry">
            <mxPoint x="697" y="504" as="sourcePoint" />
            <mxPoint x="697" y="466" as="targetPoint" />
            <Array as="points">
              <mxPoint x="833" y="660" />
              <mxPoint x="697" y="660" />
            </Array>
          </mxGeometry>
        </mxCell>
        <mxCell id="JkBDYto9jnC0jZFRPAEh-30" value="" style="endArrow=none;html=1;rounded=0;entryX=0.06;entryY=1.014;entryDx=0;entryDy=0;entryPerimeter=0;strokeWidth=5;fillColor=#e3c800;strokeColor=#B09500;exitX=0.5;exitY=0;exitDx=0;exitDy=0;" parent="1" source="JkBDYto9jnC0jZFRPAEh-66" edge="1">
          <mxGeometry width="50" height="50" relative="1" as="geometry">
            <mxPoint x="735" y="504" as="sourcePoint" />
            <mxPoint x="735" y="466" as="targetPoint" />
            <Array as="points">
              <mxPoint x="1084" y="640" />
              <mxPoint x="735" y="640" />
            </Array>
          </mxGeometry>
        </mxCell>
        <mxCell id="JkBDYto9jnC0jZFRPAEh-31" value="" style="endArrow=none;html=1;rounded=0;entryX=0.06;entryY=1.014;entryDx=0;entryDy=0;entryPerimeter=0;strokeWidth=5;fillColor=#e3c800;strokeColor=#B09500;exitX=0.5;exitY=0;exitDx=0;exitDy=0;" parent="1" source="JkBDYto9jnC0jZFRPAEh-65" edge="1">
          <mxGeometry width="50" height="50" relative="1" as="geometry">
            <mxPoint x="716.5" y="504" as="sourcePoint" />
            <mxPoint x="716.5" y="466" as="targetPoint" />
            <Array as="points">
              <mxPoint x="958" y="650" />
              <mxPoint x="717" y="650" />
            </Array>
          </mxGeometry>
        </mxCell>
        <mxCell id="JkBDYto9jnC0jZFRPAEh-38" value="&lt;font size=&quot;1&quot; color=&quot;#bd7000&quot; style=&quot;&quot;&gt;&lt;b style=&quot;font-size: 7px;&quot;&gt;CH1&lt;/b&gt;&lt;/font&gt;&lt;div&gt;&lt;font size=&quot;1&quot; color=&quot;#bd7000&quot;&gt;&lt;b style=&quot;font-size: 5px;&quot;&gt;PA0&lt;/b&gt;&lt;/font&gt;&lt;/div&gt;" style="text;html=1;align=center;verticalAlign=middle;whiteSpace=wrap;rounded=0;" parent="1" vertex="1">
          <mxGeometry x="561" y="478" width="36" height="22" as="geometry" />
        </mxCell>
        <mxCell id="JkBDYto9jnC0jZFRPAEh-39" value="&lt;font size=&quot;1&quot; color=&quot;#bd7000&quot; style=&quot;&quot;&gt;&lt;b style=&quot;font-size: 7px;&quot;&gt;CH2&lt;/b&gt;&lt;/font&gt;&lt;div&gt;&lt;font size=&quot;1&quot; color=&quot;#bd7000&quot; style=&quot;&quot;&gt;&lt;b style=&quot;font-size: 5px;&quot;&gt;PA1&lt;/b&gt;&lt;/font&gt;&lt;/div&gt;" style="text;html=1;align=center;verticalAlign=middle;whiteSpace=wrap;rounded=0;" parent="1" vertex="1">
          <mxGeometry x="581" y="478" width="36" height="22" as="geometry" />
        </mxCell>
        <mxCell id="JkBDYto9jnC0jZFRPAEh-40" value="&lt;font size=&quot;1&quot; color=&quot;#bd7000&quot; style=&quot;&quot;&gt;&lt;b style=&quot;font-size: 7px;&quot;&gt;CH3&lt;/b&gt;&lt;/font&gt;&lt;div&gt;&lt;font size=&quot;1&quot; color=&quot;#bd7000&quot; style=&quot;&quot;&gt;&lt;b style=&quot;font-size: 5px;&quot;&gt;PB10&lt;/b&gt;&lt;/font&gt;&lt;/div&gt;" style="text;html=1;align=center;verticalAlign=middle;whiteSpace=wrap;rounded=0;" parent="1" vertex="1">
          <mxGeometry x="600" y="478" width="36" height="22" as="geometry" />
        </mxCell>
        <mxCell id="JkBDYto9jnC0jZFRPAEh-41" value="&lt;font size=&quot;1&quot; color=&quot;#bd7000&quot; style=&quot;&quot;&gt;&lt;b style=&quot;font-size: 7px;&quot;&gt;CH4&lt;/b&gt;&lt;/font&gt;&lt;div&gt;&lt;font size=&quot;1&quot; color=&quot;#bd7000&quot; style=&quot;&quot;&gt;&lt;b style=&quot;font-size: 5px;&quot;&gt;PB11&lt;/b&gt;&lt;/font&gt;&lt;/div&gt;" style="text;html=1;align=center;verticalAlign=middle;whiteSpace=wrap;rounded=0;" parent="1" vertex="1">
          <mxGeometry x="619" y="478" width="36" height="22" as="geometry" />
        </mxCell>
        <mxCell id="JkBDYto9jnC0jZFRPAEh-42" value="&lt;font color=&quot;#b09500&quot; size=&quot;1&quot; style=&quot;&quot;&gt;&lt;b style=&quot;font-size: 7px;&quot;&gt;CH5&lt;/b&gt;&lt;/font&gt;&lt;div&gt;&lt;font color=&quot;#b09500&quot; size=&quot;1&quot; style=&quot;&quot;&gt;&lt;b style=&quot;font-size: 5px;&quot;&gt;PA6&lt;/b&gt;&lt;/font&gt;&lt;/div&gt;" style="text;html=1;align=center;verticalAlign=middle;whiteSpace=wrap;rounded=0;" parent="1" vertex="1">
          <mxGeometry x="651" y="478" width="36" height="22" as="geometry" />
        </mxCell>
        <mxCell id="JkBDYto9jnC0jZFRPAEh-43" value="&lt;font color=&quot;#b09500&quot; size=&quot;1&quot; style=&quot;&quot;&gt;&lt;b style=&quot;font-size: 7px;&quot;&gt;CH6&lt;/b&gt;&lt;/font&gt;&lt;div&gt;&lt;font color=&quot;#b09500&quot; size=&quot;1&quot; style=&quot;&quot;&gt;&lt;b style=&quot;font-size: 5px;&quot;&gt;PA7&lt;/b&gt;&lt;/font&gt;&lt;/div&gt;" style="text;html=1;align=center;verticalAlign=middle;whiteSpace=wrap;rounded=0;" parent="1" vertex="1">
          <mxGeometry x="670" y="478" width="36" height="22" as="geometry" />
        </mxCell>
        <mxCell id="JkBDYto9jnC0jZFRPAEh-44" value="&lt;font color=&quot;#b09500&quot; size=&quot;1&quot; style=&quot;&quot;&gt;&lt;b style=&quot;font-size: 7px;&quot;&gt;CH7&lt;/b&gt;&lt;/font&gt;&lt;div&gt;&lt;font color=&quot;#b09500&quot; size=&quot;1&quot; style=&quot;&quot;&gt;&lt;b style=&quot;font-size: 5px;&quot;&gt;PB0&lt;/b&gt;&lt;/font&gt;&lt;/div&gt;" style="text;html=1;align=center;verticalAlign=middle;whiteSpace=wrap;rounded=0;" parent="1" vertex="1">
          <mxGeometry x="689" y="478" width="36" height="22" as="geometry" />
        </mxCell>
        <mxCell id="JkBDYto9jnC0jZFRPAEh-45" value="&lt;font color=&quot;#b09500&quot; size=&quot;1&quot; style=&quot;&quot;&gt;&lt;b style=&quot;font-size: 7px;&quot;&gt;CH8&lt;/b&gt;&lt;/font&gt;&lt;div&gt;&lt;b style=&quot;&quot;&gt;&lt;font style=&quot;font-size: 5px;&quot; color=&quot;#b09500&quot;&gt;PB1&lt;/font&gt;&lt;/b&gt;&lt;/div&gt;" style="text;html=1;align=center;verticalAlign=middle;whiteSpace=wrap;rounded=0;" parent="1" vertex="1">
          <mxGeometry x="708" y="478" width="36" height="22" as="geometry" />
        </mxCell>
        <mxCell id="JkBDYto9jnC0jZFRPAEh-48" value="" style="ellipse;whiteSpace=wrap;html=1;aspect=fixed;fillColor=#a20025;fontColor=#ffffff;strokeColor=#6F0000;strokeWidth=5;perimeterSpacing=0;" parent="1" vertex="1">
          <mxGeometry x="480" y="321.5" width="17.5" height="17.5" as="geometry" />
        </mxCell>
        <mxCell id="JkBDYto9jnC0jZFRPAEh-54" value="" style="ellipse;whiteSpace=wrap;html=1;aspect=fixed;strokeWidth=5;" parent="1" vertex="1">
          <mxGeometry x="505" y="401" width="17" height="17" as="geometry" />
        </mxCell>
        <mxCell id="JkBDYto9jnC0jZFRPAEh-63" value="&lt;font color=&quot;#cccccc&quot; style=&quot;font-size: 15px;&quot;&gt;&lt;b style=&quot;&quot;&gt;SERVO 5&lt;/b&gt;&lt;/font&gt;&lt;div&gt;&lt;font color=&quot;#cccccc&quot;&gt;&lt;span style=&quot;font-size: 11px;&quot;&gt;&lt;b&gt;FL_KNEE&lt;/b&gt;&lt;/span&gt;&lt;/font&gt;&lt;/div&gt;" style="rounded=1;whiteSpace=wrap;html=1;strokeWidth=3;" parent="1" vertex="1">
          <mxGeometry x="664" y="746" width="86" height="138" as="geometry" />
        </mxCell>
        <mxCell id="JkBDYto9jnC0jZFRPAEh-64" value="&lt;font color=&quot;#cccccc&quot; style=&quot;font-size: 15px;&quot;&gt;&lt;b style=&quot;&quot;&gt;SERVO 6&lt;/b&gt;&lt;/font&gt;&lt;div&gt;&lt;font color=&quot;#cccccc&quot;&gt;&lt;span style=&quot;font-size: 11px;&quot;&gt;&lt;b&gt;RL_KNEE&lt;/b&gt;&lt;/span&gt;&lt;/font&gt;&lt;/div&gt;" style="rounded=1;whiteSpace=wrap;html=1;strokeWidth=3;" parent="1" vertex="1">
          <mxGeometry x="789.75" y="746" width="86" height="138" as="geometry" />
        </mxCell>
        <mxCell id="JkBDYto9jnC0jZFRPAEh-65" value="&lt;font color=&quot;#cccccc&quot; style=&quot;font-size: 15px;&quot;&gt;&lt;b style=&quot;&quot;&gt;SERVO 7&lt;/b&gt;&lt;/font&gt;&lt;div&gt;&lt;font size=&quot;1&quot; color=&quot;#cccccc&quot; style=&quot;&quot;&gt;&lt;b style=&quot;font-size: 11px;&quot;&gt;FR_KNEE&lt;/b&gt;&lt;/font&gt;&lt;/div&gt;" style="rounded=1;whiteSpace=wrap;html=1;strokeWidth=3;" parent="1" vertex="1">
          <mxGeometry x="914.75" y="746" width="86" height="138" as="geometry" />
        </mxCell>
        <mxCell id="JkBDYto9jnC0jZFRPAEh-66" value="&lt;font color=&quot;#cccccc&quot; style=&quot;font-size: 15px;&quot;&gt;&lt;b style=&quot;&quot;&gt;SERVO 8&lt;/b&gt;&lt;/font&gt;&lt;div&gt;&lt;font size=&quot;1&quot; color=&quot;#cccccc&quot; style=&quot;&quot;&gt;&lt;b style=&quot;font-size: 11px;&quot;&gt;RR_KNEE&lt;/b&gt;&lt;/font&gt;&lt;/div&gt;" style="rounded=1;whiteSpace=wrap;html=1;strokeWidth=3;" parent="1" vertex="1">
          <mxGeometry x="1040.5" y="746" width="86" height="138" as="geometry" />
        </mxCell>
        <mxCell id="JkBDYto9jnC0jZFRPAEh-73" value="" style="endArrow=none;html=1;rounded=0;fillColor=#a20025;strokeColor=#6F0000;strokeWidth=6;" parent="1" target="JkBDYto9jnC0jZFRPAEh-48" edge="1">
          <mxGeometry width="50" height="50" relative="1" as="geometry">
            <mxPoint x="1050" y="1000" as="sourcePoint" />
            <mxPoint x="450" y="490" as="targetPoint" />
            <Array as="points">
              <mxPoint x="-120" y="1000" />
              <mxPoint x="-120" y="600" />
              <mxPoint x="490" y="600" />
            </Array>
          </mxGeometry>
        </mxCell>
        <mxCell id="JkBDYto9jnC0jZFRPAEh-77" value="" style="endArrow=none;html=1;rounded=0;entryX=0.5;entryY=1;entryDx=0;entryDy=0;strokeWidth=6;" parent="1" target="JkBDYto9jnC0jZFRPAEh-54" edge="1">
          <mxGeometry width="50" height="50" relative="1" as="geometry">
            <mxPoint x="1120" y="980" as="sourcePoint" />
            <mxPoint x="434" y="645" as="targetPoint" />
            <Array as="points">
              <mxPoint x="-100" y="980" />
              <mxPoint x="-100" y="620" />
              <mxPoint x="510" y="620" />
            </Array>
          </mxGeometry>
        </mxCell>
        <mxCell id="JkBDYto9jnC0jZFRPAEh-78" value="&lt;b&gt;&lt;font color=&quot;#b09500&quot;&gt;TIM3&lt;/font&gt;&lt;/b&gt;" style="rounded=1;whiteSpace=wrap;html=1;strokeColor=#b09500;" parent="1" vertex="1">
          <mxGeometry x="670" y="453" width="70" height="13" as="geometry" />
        </mxCell>
        <mxCell id="JkBDYto9jnC0jZFRPAEh-79" value="&lt;b&gt;&lt;font color=&quot;#bd7000&quot;&gt;TIM2&lt;/font&gt;&lt;/b&gt;" style="rounded=1;whiteSpace=wrap;html=1;strokeColor=#bd7000;" parent="1" vertex="1">
          <mxGeometry x="583" y="453" width="70" height="13" as="geometry" />
        </mxCell>
        <mxCell id="JkBDYto9jnC0jZFRPAEh-85" value="" style="endArrow=none;html=1;rounded=0;entryX=0.883;entryY=1.002;entryDx=0;entryDy=0;entryPerimeter=0;strokeWidth=4;" parent="1" target="JkBDYto9jnC0jZFRPAEh-59" edge="1">
          <mxGeometry width="50" height="50" relative="1" as="geometry">
            <mxPoint x="100" y="981" as="sourcePoint" />
            <mxPoint x="268" y="832" as="targetPoint" />
          </mxGeometry>
        </mxCell>
        <mxCell id="JkBDYto9jnC0jZFRPAEh-86" value="" style="endArrow=none;html=1;rounded=0;entryX=0.123;entryY=0.999;entryDx=0;entryDy=0;entryPerimeter=0;strokeWidth=4;fillColor=#a20025;strokeColor=#6F0000;" parent="1" target="JkBDYto9jnC0jZFRPAEh-59" edge="1">
          <mxGeometry width="50" height="50" relative="1" as="geometry">
            <mxPoint x="34" y="1001" as="sourcePoint" />
            <mxPoint x="244" y="876" as="targetPoint" />
          </mxGeometry>
        </mxCell>
        <mxCell id="JkBDYto9jnC0jZFRPAEh-59" value="&lt;font color=&quot;#cccccc&quot; style=&quot;font-size: 15px;&quot;&gt;&lt;b style=&quot;&quot;&gt;SERVO 1&lt;/b&gt;&lt;/font&gt;&lt;div&gt;&lt;font size=&quot;1&quot; color=&quot;#cccccc&quot;&gt;&lt;b style=&quot;font-size: 11px;&quot;&gt;FL_SHOULDER&lt;/b&gt;&lt;/font&gt;&lt;/div&gt;" style="rounded=1;whiteSpace=wrap;html=1;strokeWidth=3;" parent="1" vertex="1">
          <mxGeometry x="24.5" y="746" width="86" height="138" as="geometry" />
        </mxCell>
        <mxCell id="JkBDYto9jnC0jZFRPAEh-87" value="" style="endArrow=none;html=1;rounded=0;entryX=0.883;entryY=1.002;entryDx=0;entryDy=0;entryPerimeter=0;strokeWidth=4;" parent="1" edge="1">
          <mxGeometry width="50" height="50" relative="1" as="geometry">
            <mxPoint x="226.01" y="981" as="sourcePoint" />
            <mxPoint x="226.01" y="884" as="targetPoint" />
          </mxGeometry>
        </mxCell>
        <mxCell id="JkBDYto9jnC0jZFRPAEh-88" value="" style="endArrow=none;html=1;rounded=0;entryX=0.123;entryY=0.999;entryDx=0;entryDy=0;entryPerimeter=0;strokeWidth=4;fillColor=#a20025;strokeColor=#6F0000;" parent="1" edge="1">
          <mxGeometry width="50" height="50" relative="1" as="geometry">
            <mxPoint x="160.01" y="1001" as="sourcePoint" />
            <mxPoint x="161.01" y="884" as="targetPoint" />
          </mxGeometry>
        </mxCell>
        <mxCell id="JkBDYto9jnC0jZFRPAEh-89" value="" style="endArrow=none;html=1;rounded=0;entryX=0.883;entryY=1.002;entryDx=0;entryDy=0;entryPerimeter=0;strokeWidth=4;" parent="1" edge="1">
          <mxGeometry width="50" height="50" relative="1" as="geometry">
            <mxPoint x="351.01" y="981" as="sourcePoint" />
            <mxPoint x="351.01" y="884" as="targetPoint" />
          </mxGeometry>
        </mxCell>
        <mxCell id="JkBDYto9jnC0jZFRPAEh-90" value="" style="endArrow=none;html=1;rounded=0;entryX=0.123;entryY=0.999;entryDx=0;entryDy=0;entryPerimeter=0;strokeWidth=4;fillColor=#a20025;strokeColor=#6F0000;" parent="1" edge="1">
          <mxGeometry width="50" height="50" relative="1" as="geometry">
            <mxPoint x="285.01" y="1001" as="sourcePoint" />
            <mxPoint x="286.01" y="884" as="targetPoint" />
          </mxGeometry>
        </mxCell>
        <mxCell id="JkBDYto9jnC0jZFRPAEh-92" value="" style="endArrow=none;html=1;rounded=0;entryX=0.123;entryY=0.999;entryDx=0;entryDy=0;entryPerimeter=0;strokeWidth=4;fillColor=#a20025;strokeColor=#6F0000;" parent="1" edge="1">
          <mxGeometry width="50" height="50" relative="1" as="geometry">
            <mxPoint x="410.76" y="1001" as="sourcePoint" />
            <mxPoint x="411.76" y="884" as="targetPoint" />
          </mxGeometry>
        </mxCell>
        <mxCell id="JkBDYto9jnC0jZFRPAEh-60" value="&lt;font color=&quot;#cccccc&quot; style=&quot;font-size: 15px;&quot;&gt;&lt;b style=&quot;&quot;&gt;SERVO 2&lt;/b&gt;&lt;/font&gt;&lt;div&gt;&lt;font color=&quot;#cccccc&quot; style=&quot;font-size: 11px;&quot;&gt;&lt;b style=&quot;&quot;&gt;RL_SHOULDER&lt;/b&gt;&lt;/font&gt;&lt;/div&gt;" style="rounded=1;whiteSpace=wrap;html=1;strokeWidth=3;" parent="1" vertex="1">
          <mxGeometry x="150.25" y="746" width="86" height="138" as="geometry" />
        </mxCell>
        <mxCell id="JkBDYto9jnC0jZFRPAEh-61" value="&lt;font color=&quot;#cccccc&quot; style=&quot;font-size: 15px;&quot;&gt;&lt;b style=&quot;&quot;&gt;SERVO 3&lt;/b&gt;&lt;/font&gt;&lt;div&gt;&lt;font color=&quot;#cccccc&quot;&gt;&lt;span style=&quot;font-size: 11px;&quot;&gt;&lt;b&gt;FR_SHOULDER&lt;/b&gt;&lt;/span&gt;&lt;/font&gt;&lt;/div&gt;" style="rounded=1;whiteSpace=wrap;html=1;strokeWidth=3;" parent="1" vertex="1">
          <mxGeometry x="275.25" y="746" width="86" height="138" as="geometry" />
        </mxCell>
        <mxCell id="JkBDYto9jnC0jZFRPAEh-62" value="&lt;font color=&quot;#cccccc&quot;&gt;&lt;span style=&quot;font-size: 15px;&quot;&gt;&lt;b&gt;SERVO 4&lt;/b&gt;&lt;/span&gt;&lt;/font&gt;&lt;div&gt;&lt;font size=&quot;1&quot; color=&quot;#cccccc&quot;&gt;&lt;b style=&quot;font-size: 11px;&quot;&gt;RR_SHOULDER&lt;/b&gt;&lt;/font&gt;&lt;/div&gt;" style="rounded=1;whiteSpace=wrap;html=1;strokeWidth=3;" parent="1" vertex="1">
          <mxGeometry x="401" y="746" width="86" height="138" as="geometry" />
        </mxCell>
        <mxCell id="JkBDYto9jnC0jZFRPAEh-93" value="" style="endArrow=none;html=1;rounded=0;entryX=0.883;entryY=1.002;entryDx=0;entryDy=0;entryPerimeter=0;strokeWidth=4;" parent="1" edge="1">
          <mxGeometry width="50" height="50" relative="1" as="geometry">
            <mxPoint x="738" y="981" as="sourcePoint" />
            <mxPoint x="738" y="884" as="targetPoint" />
          </mxGeometry>
        </mxCell>
        <mxCell id="JkBDYto9jnC0jZFRPAEh-94" value="" style="endArrow=none;html=1;rounded=0;entryX=0.123;entryY=0.999;entryDx=0;entryDy=0;entryPerimeter=0;strokeWidth=4;fillColor=#a20025;strokeColor=#6F0000;" parent="1" edge="1">
          <mxGeometry width="50" height="50" relative="1" as="geometry">
            <mxPoint x="672" y="1001" as="sourcePoint" />
            <mxPoint x="673" y="884" as="targetPoint" />
          </mxGeometry>
        </mxCell>
        <mxCell id="JkBDYto9jnC0jZFRPAEh-95" value="" style="endArrow=none;html=1;rounded=0;entryX=0.883;entryY=1.002;entryDx=0;entryDy=0;entryPerimeter=0;strokeWidth=4;" parent="1" edge="1">
          <mxGeometry width="50" height="50" relative="1" as="geometry">
            <mxPoint x="864.01" y="981" as="sourcePoint" />
            <mxPoint x="864.01" y="884" as="targetPoint" />
          </mxGeometry>
        </mxCell>
        <mxCell id="JkBDYto9jnC0jZFRPAEh-96" value="" style="endArrow=none;html=1;rounded=0;entryX=0.123;entryY=0.999;entryDx=0;entryDy=0;entryPerimeter=0;strokeWidth=4;fillColor=#a20025;strokeColor=#6F0000;" parent="1" edge="1">
          <mxGeometry width="50" height="50" relative="1" as="geometry">
            <mxPoint x="798.01" y="1001" as="sourcePoint" />
            <mxPoint x="799.01" y="884" as="targetPoint" />
          </mxGeometry>
        </mxCell>
        <mxCell id="JkBDYto9jnC0jZFRPAEh-97" value="" style="endArrow=none;html=1;rounded=0;entryX=0.883;entryY=1.002;entryDx=0;entryDy=0;entryPerimeter=0;strokeWidth=4;" parent="1" edge="1">
          <mxGeometry width="50" height="50" relative="1" as="geometry">
            <mxPoint x="989.01" y="981" as="sourcePoint" />
            <mxPoint x="989.01" y="884" as="targetPoint" />
          </mxGeometry>
        </mxCell>
        <mxCell id="JkBDYto9jnC0jZFRPAEh-98" value="" style="endArrow=none;html=1;rounded=0;entryX=0.123;entryY=0.999;entryDx=0;entryDy=0;entryPerimeter=0;strokeWidth=4;fillColor=#a20025;strokeColor=#6F0000;" parent="1" edge="1">
          <mxGeometry width="50" height="50" relative="1" as="geometry">
            <mxPoint x="923.01" y="1001" as="sourcePoint" />
            <mxPoint x="924.01" y="884" as="targetPoint" />
          </mxGeometry>
        </mxCell>
        <mxCell id="JkBDYto9jnC0jZFRPAEh-100" value="" style="endArrow=none;html=1;rounded=0;entryX=0.123;entryY=0.999;entryDx=0;entryDy=0;entryPerimeter=0;strokeWidth=4;fillColor=#a20025;strokeColor=#6F0000;" parent="1" edge="1">
          <mxGeometry width="50" height="50" relative="1" as="geometry">
            <mxPoint x="1048.76" y="1001" as="sourcePoint" />
            <mxPoint x="1049.76" y="884" as="targetPoint" />
          </mxGeometry>
        </mxCell>
        <mxCell id="JkBDYto9jnC0jZFRPAEh-101" value="" style="ellipse;whiteSpace=wrap;html=1;aspect=fixed;strokeWidth=4;" parent="1" vertex="1">
          <mxGeometry x="91" y="971" width="18" height="18" as="geometry" />
        </mxCell>
        <mxCell id="JkBDYto9jnC0jZFRPAEh-102" value="" style="ellipse;whiteSpace=wrap;html=1;aspect=fixed;strokeWidth=4;" parent="1" vertex="1">
          <mxGeometry x="218" y="972" width="17" height="17" as="geometry" />
        </mxCell>
        <mxCell id="JkBDYto9jnC0jZFRPAEh-103" value="" style="ellipse;whiteSpace=wrap;html=1;aspect=fixed;strokeWidth=4;" parent="1" vertex="1">
          <mxGeometry x="343" y="972" width="17" height="17" as="geometry" />
        </mxCell>
        <mxCell id="JkBDYto9jnC0jZFRPAEh-106" value="" style="ellipse;whiteSpace=wrap;html=1;aspect=fixed;strokeWidth=4;" parent="1" vertex="1">
          <mxGeometry x="469" y="971" width="17" height="17" as="geometry" />
        </mxCell>
        <mxCell id="JkBDYto9jnC0jZFRPAEh-107" value="" style="endArrow=none;html=1;rounded=0;exitX=0.5;exitY=0;exitDx=0;exitDy=0;entryX=0.89;entryY=1.002;entryDx=0;entryDy=0;entryPerimeter=0;strokeWidth=4;" parent="1" source="JkBDYto9jnC0jZFRPAEh-106" target="JkBDYto9jnC0jZFRPAEh-62" edge="1">
          <mxGeometry width="50" height="50" relative="1" as="geometry">
            <mxPoint x="472" y="988" as="sourcePoint" />
            <mxPoint x="522" y="938" as="targetPoint" />
          </mxGeometry>
        </mxCell>
        <mxCell id="JkBDYto9jnC0jZFRPAEh-108" value="" style="ellipse;whiteSpace=wrap;html=1;aspect=fixed;strokeWidth=4;" parent="1" vertex="1">
          <mxGeometry x="729" y="972" width="18" height="18" as="geometry" />
        </mxCell>
        <mxCell id="JkBDYto9jnC0jZFRPAEh-109" value="" style="ellipse;whiteSpace=wrap;html=1;aspect=fixed;strokeWidth=4;" parent="1" vertex="1">
          <mxGeometry x="856" y="973" width="17" height="17" as="geometry" />
        </mxCell>
        <mxCell id="JkBDYto9jnC0jZFRPAEh-110" value="" style="ellipse;whiteSpace=wrap;html=1;aspect=fixed;strokeWidth=4;" parent="1" vertex="1">
          <mxGeometry x="981" y="973" width="17" height="17" as="geometry" />
        </mxCell>
        <mxCell id="JkBDYto9jnC0jZFRPAEh-111" value="" style="ellipse;whiteSpace=wrap;html=1;aspect=fixed;strokeWidth=4;" parent="1" vertex="1">
          <mxGeometry x="1107" y="972" width="17" height="17" as="geometry" />
        </mxCell>
        <mxCell id="JkBDYto9jnC0jZFRPAEh-112" value="" style="endArrow=none;html=1;rounded=0;exitX=0.5;exitY=0;exitDx=0;exitDy=0;entryX=0.87;entryY=1.014;entryDx=0;entryDy=0;entryPerimeter=0;strokeWidth=4;" parent="1" source="JkBDYto9jnC0jZFRPAEh-111" target="JkBDYto9jnC0jZFRPAEh-66" edge="1">
          <mxGeometry width="50" height="50" relative="1" as="geometry">
            <mxPoint x="1078" y="1021" as="sourcePoint" />
            <mxPoint x="1128" y="971" as="targetPoint" />
          </mxGeometry>
        </mxCell>
        <mxCell id="JkBDYto9jnC0jZFRPAEh-113" value="" style="ellipse;whiteSpace=wrap;html=1;aspect=fixed;strokeWidth=4;fillColor=#a20025;fontColor=#ffffff;strokeColor=#6F0000;" parent="1" vertex="1">
          <mxGeometry x="25" y="991" width="18" height="18" as="geometry" />
        </mxCell>
        <mxCell id="JkBDYto9jnC0jZFRPAEh-114" value="" style="ellipse;whiteSpace=wrap;html=1;aspect=fixed;strokeWidth=4;fillColor=#a20025;fontColor=#ffffff;strokeColor=#6F0000;" parent="1" vertex="1">
          <mxGeometry x="152" y="992" width="17" height="17" as="geometry" />
        </mxCell>
        <mxCell id="JkBDYto9jnC0jZFRPAEh-115" value="" style="ellipse;whiteSpace=wrap;html=1;aspect=fixed;strokeWidth=4;fillColor=#a20025;fontColor=#ffffff;strokeColor=#6F0000;" parent="1" vertex="1">
          <mxGeometry x="277" y="992" width="17" height="17" as="geometry" />
        </mxCell>
        <mxCell id="JkBDYto9jnC0jZFRPAEh-116" value="" style="ellipse;whiteSpace=wrap;html=1;aspect=fixed;strokeWidth=4;fillColor=#a20025;fontColor=#ffffff;strokeColor=#6F0000;" parent="1" vertex="1">
          <mxGeometry x="403" y="991" width="17" height="17" as="geometry" />
        </mxCell>
        <mxCell id="JkBDYto9jnC0jZFRPAEh-117" value="" style="ellipse;whiteSpace=wrap;html=1;aspect=fixed;strokeWidth=4;fillColor=#a20025;fontColor=#ffffff;strokeColor=#6F0000;" parent="1" vertex="1">
          <mxGeometry x="663" y="992" width="18" height="18" as="geometry" />
        </mxCell>
        <mxCell id="JkBDYto9jnC0jZFRPAEh-118" value="" style="ellipse;whiteSpace=wrap;html=1;aspect=fixed;strokeWidth=4;fillColor=#a20025;fontColor=#ffffff;strokeColor=#6F0000;" parent="1" vertex="1">
          <mxGeometry x="790" y="993" width="17" height="17" as="geometry" />
        </mxCell>
        <mxCell id="JkBDYto9jnC0jZFRPAEh-119" value="" style="ellipse;whiteSpace=wrap;html=1;aspect=fixed;strokeWidth=4;fillColor=#a20025;fontColor=#ffffff;strokeColor=#6F0000;" parent="1" vertex="1">
          <mxGeometry x="915" y="993" width="17" height="17" as="geometry" />
        </mxCell>
        <mxCell id="JkBDYto9jnC0jZFRPAEh-120" value="" style="ellipse;whiteSpace=wrap;html=1;aspect=fixed;strokeWidth=4;fillColor=#a20025;fontColor=#ffffff;strokeColor=#6F0000;" parent="1" vertex="1">
          <mxGeometry x="1041" y="992" width="17" height="17" as="geometry" />
        </mxCell>
        <mxCell id="JkBDYto9jnC0jZFRPAEh-121" value="&lt;font style=&quot;font-size: 10px;&quot;&gt;V&lt;span style=&quot;background-color: initial;&quot;&gt;_IN&lt;/span&gt;&lt;/font&gt;" style="text;html=1;align=center;verticalAlign=middle;whiteSpace=wrap;rounded=0;" parent="1" vertex="1">
          <mxGeometry x="-10" y="877" width="60" height="40" as="geometry" />
        </mxCell>
        <mxCell id="JkBDYto9jnC0jZFRPAEh-122" value="&lt;font style=&quot;font-size: 10px;&quot;&gt;V&lt;span style=&quot;background-color: initial;&quot;&gt;_IN&lt;/span&gt;&lt;/font&gt;" style="text;html=1;align=center;verticalAlign=middle;whiteSpace=wrap;rounded=0;" parent="1" vertex="1">
          <mxGeometry x="115" y="877" width="60" height="40" as="geometry" />
        </mxCell>
        <mxCell id="JkBDYto9jnC0jZFRPAEh-123" value="&lt;font style=&quot;font-size: 10px;&quot;&gt;V&lt;span style=&quot;background-color: initial;&quot;&gt;_IN&lt;/span&gt;&lt;/font&gt;" style="text;html=1;align=center;verticalAlign=middle;whiteSpace=wrap;rounded=0;" parent="1" vertex="1">
          <mxGeometry x="241" y="877" width="60" height="40" as="geometry" />
        </mxCell>
        <mxCell id="JkBDYto9jnC0jZFRPAEh-124" value="&lt;font style=&quot;font-size: 10px;&quot;&gt;V&lt;span style=&quot;background-color: initial;&quot;&gt;_IN&lt;/span&gt;&lt;/font&gt;" style="text;html=1;align=center;verticalAlign=middle;whiteSpace=wrap;rounded=0;" parent="1" vertex="1">
          <mxGeometry x="368" y="877" width="60" height="40" as="geometry" />
        </mxCell>
        <mxCell id="JkBDYto9jnC0jZFRPAEh-125" value="&lt;font style=&quot;font-size: 10px;&quot;&gt;V&lt;span style=&quot;background-color: initial;&quot;&gt;_IN&lt;/span&gt;&lt;/font&gt;" style="text;html=1;align=center;verticalAlign=middle;whiteSpace=wrap;rounded=0;" parent="1" vertex="1">
          <mxGeometry x="629" y="877" width="60" height="40" as="geometry" />
        </mxCell>
        <mxCell id="JkBDYto9jnC0jZFRPAEh-126" value="&lt;font style=&quot;font-size: 10px;&quot;&gt;V&lt;span style=&quot;background-color: initial;&quot;&gt;_IN&lt;/span&gt;&lt;/font&gt;" style="text;html=1;align=center;verticalAlign=middle;whiteSpace=wrap;rounded=0;" parent="1" vertex="1">
          <mxGeometry x="754" y="877" width="60" height="40" as="geometry" />
        </mxCell>
        <mxCell id="JkBDYto9jnC0jZFRPAEh-127" value="&lt;font style=&quot;font-size: 10px;&quot;&gt;V&lt;span style=&quot;background-color: initial;&quot;&gt;_IN&lt;/span&gt;&lt;/font&gt;" style="text;html=1;align=center;verticalAlign=middle;whiteSpace=wrap;rounded=0;" parent="1" vertex="1">
          <mxGeometry x="880" y="877" width="60" height="40" as="geometry" />
        </mxCell>
        <mxCell id="JkBDYto9jnC0jZFRPAEh-128" value="&lt;font style=&quot;font-size: 10px;&quot;&gt;V&lt;span style=&quot;background-color: initial;&quot;&gt;_IN&lt;/span&gt;&lt;/font&gt;" style="text;html=1;align=center;verticalAlign=middle;whiteSpace=wrap;rounded=0;" parent="1" vertex="1">
          <mxGeometry x="1007" y="877" width="60" height="40" as="geometry" />
        </mxCell>
        <mxCell id="JkBDYto9jnC0jZFRPAEh-129" value="&lt;font style=&quot;font-size: 10px;&quot;&gt;GND&lt;/font&gt;" style="text;html=1;align=center;verticalAlign=middle;whiteSpace=wrap;rounded=0;" parent="1" vertex="1">
          <mxGeometry x="55" y="877" width="60" height="40" as="geometry" />
        </mxCell>
        <mxCell id="JkBDYto9jnC0jZFRPAEh-131" value="&lt;font style=&quot;font-size: 10px;&quot;&gt;GND&lt;/font&gt;" style="text;html=1;align=center;verticalAlign=middle;whiteSpace=wrap;rounded=0;" parent="1" vertex="1">
          <mxGeometry x="181" y="877" width="60" height="40" as="geometry" />
        </mxCell>
        <mxCell id="JkBDYto9jnC0jZFRPAEh-132" value="&lt;font style=&quot;font-size: 10px;&quot;&gt;GND&lt;/font&gt;" style="text;html=1;align=center;verticalAlign=middle;whiteSpace=wrap;rounded=0;" parent="1" vertex="1">
          <mxGeometry x="306" y="877" width="60" height="40" as="geometry" />
        </mxCell>
        <mxCell id="JkBDYto9jnC0jZFRPAEh-133" value="&lt;font style=&quot;font-size: 10px;&quot;&gt;GND&lt;/font&gt;" style="text;html=1;align=center;verticalAlign=middle;whiteSpace=wrap;rounded=0;" parent="1" vertex="1">
          <mxGeometry x="433" y="877" width="60" height="40" as="geometry" />
        </mxCell>
        <mxCell id="JkBDYto9jnC0jZFRPAEh-134" value="&lt;font style=&quot;font-size: 10px;&quot;&gt;GND&lt;/font&gt;" style="text;html=1;align=center;verticalAlign=middle;whiteSpace=wrap;rounded=0;" parent="1" vertex="1">
          <mxGeometry x="693" y="877" width="60" height="40" as="geometry" />
        </mxCell>
        <mxCell id="JkBDYto9jnC0jZFRPAEh-135" value="&lt;font style=&quot;font-size: 10px;&quot;&gt;GND&lt;/font&gt;" style="text;html=1;align=center;verticalAlign=middle;whiteSpace=wrap;rounded=0;" parent="1" vertex="1">
          <mxGeometry x="819" y="877" width="60" height="40" as="geometry" />
        </mxCell>
        <mxCell id="JkBDYto9jnC0jZFRPAEh-136" value="&lt;font style=&quot;font-size: 10px;&quot;&gt;GND&lt;/font&gt;" style="text;html=1;align=center;verticalAlign=middle;whiteSpace=wrap;rounded=0;" parent="1" vertex="1">
          <mxGeometry x="944" y="877" width="60" height="40" as="geometry" />
        </mxCell>
        <mxCell id="JkBDYto9jnC0jZFRPAEh-137" value="&lt;font style=&quot;font-size: 10px;&quot;&gt;GND&lt;/font&gt;" style="text;html=1;align=center;verticalAlign=middle;whiteSpace=wrap;rounded=0;" parent="1" vertex="1">
          <mxGeometry x="1071" y="877" width="60" height="40" as="geometry" />
        </mxCell>
        <mxCell id="JkBDYto9jnC0jZFRPAEh-141" value="&lt;font color=&quot;#bd7000&quot; style=&quot;font-size: 9px;&quot;&gt;PWM&lt;/font&gt;" style="text;html=1;align=center;verticalAlign=middle;resizable=0;points=[];autosize=1;strokeColor=none;fillColor=none;" parent="1" vertex="1">
          <mxGeometry x="27" y="716" width="50" height="30" as="geometry" />
        </mxCell>
        <mxCell id="JkBDYto9jnC0jZFRPAEh-142" value="&lt;font color=&quot;#bd7000&quot; style=&quot;font-size: 9px;&quot;&gt;PWM&lt;/font&gt;" style="text;html=1;align=center;verticalAlign=middle;resizable=0;points=[];autosize=1;strokeColor=none;fillColor=none;" parent="1" vertex="1">
          <mxGeometry x="154" y="716" width="50" height="30" as="geometry" />
        </mxCell>
        <mxCell id="JkBDYto9jnC0jZFRPAEh-143" value="&lt;font color=&quot;#bd7000&quot; style=&quot;font-size: 9px;&quot;&gt;PWM&lt;/font&gt;" style="text;html=1;align=center;verticalAlign=middle;resizable=0;points=[];autosize=1;strokeColor=none;fillColor=none;" parent="1" vertex="1">
          <mxGeometry x="278" y="716" width="50" height="30" as="geometry" />
        </mxCell>
        <mxCell id="JkBDYto9jnC0jZFRPAEh-144" value="&lt;font color=&quot;#bd7000&quot; style=&quot;font-size: 9px;&quot;&gt;PWM&lt;/font&gt;" style="text;html=1;align=center;verticalAlign=middle;resizable=0;points=[];autosize=1;strokeColor=none;fillColor=none;" parent="1" vertex="1">
          <mxGeometry x="405" y="716" width="50" height="30" as="geometry" />
        </mxCell>
        <mxCell id="JkBDYto9jnC0jZFRPAEh-145" value="&lt;font color=&quot;#b09500&quot; style=&quot;font-size: 9px;&quot;&gt;PWM&lt;/font&gt;" style="text;html=1;align=center;verticalAlign=middle;resizable=0;points=[];autosize=1;strokeColor=none;fillColor=none;" parent="1" vertex="1">
          <mxGeometry x="672" y="718" width="40" height="26" as="geometry" />
        </mxCell>
        <mxCell id="JkBDYto9jnC0jZFRPAEh-146" value="&lt;font color=&quot;#b09500&quot; style=&quot;font-size: 9px;&quot;&gt;PWM&lt;/font&gt;" style="text;html=1;align=center;verticalAlign=middle;resizable=0;points=[];autosize=1;strokeColor=none;fillColor=none;" parent="1" vertex="1">
          <mxGeometry x="798" y="720" width="40" height="26" as="geometry" />
        </mxCell>
        <mxCell id="JkBDYto9jnC0jZFRPAEh-147" value="&lt;font color=&quot;#b09500&quot; style=&quot;font-size: 9px;&quot;&gt;PWM&lt;/font&gt;" style="text;html=1;align=center;verticalAlign=middle;resizable=0;points=[];autosize=1;strokeColor=none;fillColor=none;" parent="1" vertex="1">
          <mxGeometry x="923" y="720" width="40" height="26" as="geometry" />
        </mxCell>
        <mxCell id="JkBDYto9jnC0jZFRPAEh-148" value="&lt;font color=&quot;#b09500&quot; style=&quot;font-size: 9px;&quot;&gt;PWM&lt;/font&gt;" style="text;html=1;align=center;verticalAlign=middle;resizable=0;points=[];autosize=1;strokeColor=none;fillColor=none;" parent="1" vertex="1">
          <mxGeometry x="1048" y="718" width="40" height="26" as="geometry" />
        </mxCell>
        <mxCell id="Y943WYyyU99tUCONeAsC-35" value="&lt;span style=&quot;color: rgb(255, 255, 255); font-family: &amp;quot;Google Sans&amp;quot;, Arial, sans-serif; text-align: left; background-color: rgb(31, 31, 31);&quot;&gt;&lt;font style=&quot;font-size: 10px;&quot;&gt;100μF&lt;/font&gt;&lt;/span&gt;" style="text;html=1;align=center;verticalAlign=middle;whiteSpace=wrap;rounded=0;" parent="1" vertex="1">
          <mxGeometry x="37.5" y="945" width="60" height="30" as="geometry" />
        </mxCell>
        <mxCell id="Y943WYyyU99tUCONeAsC-36" value="&lt;span style=&quot;color: rgb(255, 255, 255); font-family: &amp;quot;Google Sans&amp;quot;, Arial, sans-serif; text-align: left; background-color: rgb(31, 31, 31);&quot;&gt;&lt;font style=&quot;font-size: 10px;&quot;&gt;100μF&lt;/font&gt;&lt;/span&gt;" style="text;html=1;align=center;verticalAlign=middle;whiteSpace=wrap;rounded=0;" parent="1" vertex="1">
          <mxGeometry x="163.25" y="945" width="60" height="30" as="geometry" />
        </mxCell>
        <mxCell id="Y943WYyyU99tUCONeAsC-38" value="&lt;span style=&quot;color: rgb(255, 255, 255); font-family: &amp;quot;Google Sans&amp;quot;, Arial, sans-serif; text-align: left; background-color: rgb(31, 31, 31);&quot;&gt;&lt;font style=&quot;font-size: 10px;&quot;&gt;100μF&lt;/font&gt;&lt;/span&gt;" style="text;html=1;align=center;verticalAlign=middle;whiteSpace=wrap;rounded=0;" parent="1" vertex="1">
          <mxGeometry x="288.25" y="945" width="60" height="30" as="geometry" />
        </mxCell>
        <mxCell id="Y943WYyyU99tUCONeAsC-40" value="&lt;span style=&quot;color: rgb(255, 255, 255); font-family: &amp;quot;Google Sans&amp;quot;, Arial, sans-serif; text-align: left; background-color: rgb(31, 31, 31);&quot;&gt;&lt;font style=&quot;font-size: 10px;&quot;&gt;100μF&lt;/font&gt;&lt;/span&gt;" style="text;html=1;align=center;verticalAlign=middle;whiteSpace=wrap;rounded=0;" parent="1" vertex="1">
          <mxGeometry x="414" y="945" width="60" height="30" as="geometry" />
        </mxCell>
        <mxCell id="Y943WYyyU99tUCONeAsC-41" value="&lt;span style=&quot;color: rgb(255, 255, 255); font-family: &amp;quot;Google Sans&amp;quot;, Arial, sans-serif; text-align: left; background-color: rgb(31, 31, 31);&quot;&gt;&lt;font style=&quot;font-size: 10px;&quot;&gt;100μF&lt;/font&gt;&lt;/span&gt;" style="text;html=1;align=center;verticalAlign=middle;whiteSpace=wrap;rounded=0;" parent="1" vertex="1">
          <mxGeometry x="677" y="945" width="60" height="30" as="geometry" />
        </mxCell>
        <mxCell id="Y943WYyyU99tUCONeAsC-42" value="&lt;span style=&quot;color: rgb(255, 255, 255); font-family: &amp;quot;Google Sans&amp;quot;, Arial, sans-serif; text-align: left; background-color: rgb(31, 31, 31);&quot;&gt;&lt;font style=&quot;font-size: 10px;&quot;&gt;100μF&lt;/font&gt;&lt;/span&gt;" style="text;html=1;align=center;verticalAlign=middle;whiteSpace=wrap;rounded=0;" parent="1" vertex="1">
          <mxGeometry x="802.75" y="945" width="60" height="30" as="geometry" />
        </mxCell>
        <mxCell id="Y943WYyyU99tUCONeAsC-43" value="&lt;span style=&quot;color: rgb(255, 255, 255); font-family: &amp;quot;Google Sans&amp;quot;, Arial, sans-serif; text-align: left; background-color: rgb(31, 31, 31);&quot;&gt;&lt;font style=&quot;font-size: 10px;&quot;&gt;100μF&lt;/font&gt;&lt;/span&gt;" style="text;html=1;align=center;verticalAlign=middle;whiteSpace=wrap;rounded=0;" parent="1" vertex="1">
          <mxGeometry x="927.75" y="945" width="60" height="30" as="geometry" />
        </mxCell>
        <mxCell id="Y943WYyyU99tUCONeAsC-44" value="&lt;span style=&quot;color: rgb(255, 255, 255); font-family: &amp;quot;Google Sans&amp;quot;, Arial, sans-serif; text-align: left; background-color: rgb(31, 31, 31);&quot;&gt;&lt;font style=&quot;font-size: 10px;&quot;&gt;100μF&lt;/font&gt;&lt;/span&gt;" style="text;html=1;align=center;verticalAlign=middle;whiteSpace=wrap;rounded=0;" parent="1" vertex="1">
          <mxGeometry x="1053.5" y="945" width="60" height="30" as="geometry" />
        </mxCell>
        <mxCell id="Y943WYyyU99tUCONeAsC-105" value="" style="endArrow=none;html=1;rounded=0;strokeWidth=3;fillColor=#f5f5f5;strokeColor=#666666;gradientColor=#b3b3b3;" parent="1" edge="1">
          <mxGeometry width="50" height="50" relative="1" as="geometry">
            <mxPoint x="189" y="950" as="sourcePoint" />
            <mxPoint x="189" y="930" as="targetPoint" />
            <Array as="points">
              <mxPoint x="189" y="940" />
            </Array>
          </mxGeometry>
        </mxCell>
        <mxCell id="Y943WYyyU99tUCONeAsC-106" value="" style="endArrow=none;html=1;rounded=0;strokeWidth=3;fillColor=#f5f5f5;strokeColor=#666666;gradientColor=#b3b3b3;" parent="1" edge="1">
          <mxGeometry width="50" height="50" relative="1" as="geometry">
            <mxPoint x="199.25" y="950" as="sourcePoint" />
            <mxPoint x="199.25" y="930" as="targetPoint" />
          </mxGeometry>
        </mxCell>
        <mxCell id="Y943WYyyU99tUCONeAsC-107" value="" style="endArrow=none;html=1;rounded=0;strokeWidth=2;fillColor=#f5f5f5;strokeColor=#666666;gradientColor=#b3b3b3;" parent="1" edge="1">
          <mxGeometry width="50" height="50" relative="1" as="geometry">
            <mxPoint x="198.25" y="940" as="sourcePoint" />
            <mxPoint x="226.25" y="940" as="targetPoint" />
          </mxGeometry>
        </mxCell>
        <mxCell id="Y943WYyyU99tUCONeAsC-108" value="" style="endArrow=none;html=1;rounded=0;strokeWidth=2;fillColor=#f5f5f5;strokeColor=#666666;gradientColor=#b3b3b3;" parent="1" edge="1">
          <mxGeometry width="50" height="50" relative="1" as="geometry">
            <mxPoint x="160.25" y="940" as="sourcePoint" />
            <mxPoint x="187.25" y="940" as="targetPoint" />
          </mxGeometry>
        </mxCell>
        <mxCell id="Y943WYyyU99tUCONeAsC-109" value="" style="endArrow=none;html=1;rounded=0;strokeWidth=2;fillColor=#f5f5f5;strokeColor=#666666;gradientColor=#b3b3b3;" parent="1" edge="1">
          <mxGeometry width="50" height="50" relative="1" as="geometry">
            <mxPoint x="161.75" y="940" as="sourcePoint" />
            <mxPoint x="189" y="940" as="targetPoint" />
          </mxGeometry>
        </mxCell>
        <mxCell id="Y943WYyyU99tUCONeAsC-110" value="" style="endArrow=none;html=1;rounded=0;strokeWidth=3;fillColor=#f5f5f5;strokeColor=#666666;gradientColor=#b3b3b3;" parent="1" edge="1">
          <mxGeometry width="50" height="50" relative="1" as="geometry">
            <mxPoint x="63.25" y="950" as="sourcePoint" />
            <mxPoint x="63.25" y="930" as="targetPoint" />
            <Array as="points">
              <mxPoint x="63.25" y="940" />
            </Array>
          </mxGeometry>
        </mxCell>
        <mxCell id="Y943WYyyU99tUCONeAsC-111" value="" style="endArrow=none;html=1;rounded=0;strokeWidth=3;fillColor=#f5f5f5;strokeColor=#666666;gradientColor=#b3b3b3;" parent="1" edge="1">
          <mxGeometry width="50" height="50" relative="1" as="geometry">
            <mxPoint x="73.5" y="950" as="sourcePoint" />
            <mxPoint x="73.5" y="930" as="targetPoint" />
          </mxGeometry>
        </mxCell>
        <mxCell id="Y943WYyyU99tUCONeAsC-112" value="" style="endArrow=none;html=1;rounded=0;strokeWidth=2;fillColor=#f5f5f5;strokeColor=#666666;gradientColor=#b3b3b3;" parent="1" edge="1">
          <mxGeometry width="50" height="50" relative="1" as="geometry">
            <mxPoint x="72.5" y="940" as="sourcePoint" />
            <mxPoint x="100.5" y="940" as="targetPoint" />
          </mxGeometry>
        </mxCell>
        <mxCell id="Y943WYyyU99tUCONeAsC-113" value="" style="endArrow=none;html=1;rounded=0;strokeWidth=2;fillColor=#f5f5f5;strokeColor=#666666;gradientColor=#b3b3b3;" parent="1" edge="1">
          <mxGeometry width="50" height="50" relative="1" as="geometry">
            <mxPoint x="34.5" y="940" as="sourcePoint" />
            <mxPoint x="61.5" y="940" as="targetPoint" />
          </mxGeometry>
        </mxCell>
        <mxCell id="Y943WYyyU99tUCONeAsC-114" value="" style="endArrow=none;html=1;rounded=0;strokeWidth=2;fillColor=#f5f5f5;strokeColor=#666666;gradientColor=#b3b3b3;" parent="1" edge="1">
          <mxGeometry width="50" height="50" relative="1" as="geometry">
            <mxPoint x="36" y="940" as="sourcePoint" />
            <mxPoint x="63.25" y="940" as="targetPoint" />
          </mxGeometry>
        </mxCell>
      </root>
    </mxGraphModel>
  </diagram>
</mxfile>
